<svg id="visual" viewBox="0 0 900 600" width="900" height="600" xmlns="http://www.w3.org/2000/svg" xmlns:xlink="http://www.w3.org/1999/xlink" version="1.1"><rect x="0" y="0" width="900" height="600" fill="#ffffff"></rect><path d="M0 431L43 431L43 446L86 446L86 354L129 354L129 214L171 214L171 518L214 518L214 305L257 305L257 475L300 475L300 342L343 342L343 251L386 251L386 241L429 241L429 509L471 509L471 449L514 449L514 262L557 262L557 264L600 264L600 317L643 317L643 489L686 489L686 193L729 193L729 235L771 235L771 269L814 269L814 435L857 435L857 323L900 323L900 187L900 0L900 0L857 0L857 0L814 0L814 0L771 0L771 0L729 0L729 0L686 0L686 0L643 0L643 0L600 0L600 0L557 0L557 0L514 0L514 0L471 0L471 0L429 0L429 0L386 0L386 0L343 0L343 0L300 0L300 0L257 0L257 0L214 0L214 0L171 0L171 0L129 0L129 0L86 0L86 0L43 0L43 0L0 0Z" fill="#ffd3b9"></path><path d="M0 174L43 174L43 425L86 425L86 410L129 410L129 294L171 294L171 227L214 227L214 168L257 168L257 429L300 429L300 204L343 204L343 158L386 158L386 215L429 215L429 298L471 298L471 158L514 158L514 406L557 406L557 243L600 243L600 312L643 312L643 426L686 426L686 267L729 267L729 189L771 189L771 346L814 346L814 434L857 434L857 482L900 482L900 465L900 0L900 0L857 0L857 0L814 0L814 0L771 0L771 0L729 0L729 0L686 0L686 0L643 0L643 0L600 0L600 0L557 0L557 0L514 0L514 0L471 0L471 0L429 0L429 0L386 0L386 0L343 0L343 0L300 0L300 0L257 0L257 0L214 0L214 0L171 0L171 0L129 0L129 0L86 0L86 0L43 0L43 0L0 0Z" fill="#f5ad99"></path><path d="M0 149L43 149L43 336L86 336L86 390L129 390L129 140L171 140L171 397L214 397L214 293L257 293L257 250L300 250L300 194L343 194L343 231L386 231L386 129L429 129L429 140L471 140L471 294L514 294L514 384L557 384L557 310L600 310L600 240L643 240L643 147L686 147L686 282L729 282L729 185L771 185L771 347L814 347L814 289L857 289L857 347L900 347L900 179L900 0L900 0L857 0L857 0L814 0L814 0L771 0L771 0L729 0L729 0L686 0L686 0L643 0L643 0L600 0L600 0L557 0L557 0L514 0L514 0L471 0L471 0L429 0L429 0L386 0L386 0L343 0L343 0L300 0L300 0L257 0L257 0L214 0L214 0L171 0L171 0L129 0L129 0L86 0L86 0L43 0L43 0L0 0Z" fill="#e88586"></path><path d="M0 164L43 164L43 300L86 300L86 266L129 266L129 287L171 287L171 195L214 195L214 206L257 206L257 212L300 212L300 268L343 268L343 165L386 165L386 142L429 142L429 178L471 178L471 131L514 131L514 119L557 119L557 126L600 126L600 296L643 296L643 285L686 285L686 276L729 276L729 311L771 311L771 318L814 318L814 322L857 322L857 305L900 305L900 222L900 0L900 0L857 0L857 0L814 0L814 0L771 0L771 0L729 0L729 0L686 0L686 0L643 0L643 0L600 0L600 0L557 0L557 0L514 0L514 0L471 0L471 0L429 0L429 0L386 0L386 0L343 0L343 0L300 0L300 0L257 0L257 0L214 0L214 0L171 0L171 0L129 0L129 0L86 0L86 0L43 0L43 0L0 0Z" fill="#d65d7e"></path><path d="M0 128L43 128L43 192L86 192L86 258L129 258L129 231L171 231L171 90L214 90L214 160L257 160L257 165L300 165L300 194L343 194L343 165L386 165L386 193L429 193L429 260L471 260L471 212L514 212L514 268L557 268L557 114L600 114L600 158L643 158L643 264L686 264L686 210L729 210L729 116L771 116L771 266L814 266L814 234L857 234L857 94L900 94L900 131L900 0L900 0L857 0L857 0L814 0L814 0L771 0L771 0L729 0L729 0L686 0L686 0L643 0L643 0L600 0L600 0L557 0L557 0L514 0L514 0L471 0L471 0L429 0L429 0L386 0L386 0L343 0L343 0L300 0L300 0L257 0L257 0L214 0L214 0L171 0L171 0L129 0L129 0L86 0L86 0L43 0L43 0L0 0Z" fill="#bb357f"></path><path d="M0 68L43 68L43 82L86 82L86 173L129 173L129 101L171 101L171 78L214 78L214 190L257 190L257 168L300 168L300 68L343 68L343 60L386 60L386 201L429 201L429 64L471 64L471 60L514 60L514 122L557 122L557 91L600 91L600 48L643 48L643 68L686 68L686 42L729 42L729 66L771 66L771 99L814 99L814 114L857 114L857 61L900 61L900 86L900 0L900 0L857 0L857 0L814 0L814 0L771 0L771 0L729 0L729 0L686 0L686 0L643 0L643 0L600 0L600 0L557 0L557 0L514 0L514 0L471 0L471 0L429 0L429 0L386 0L386 0L343 0L343 0L300 0L300 0L257 0L257 0L214 0L214 0L171 0L171 0L129 0L129 0L86 0L86 0L43 0L43 0L0 0Z" fill="#930b87"></path><path d="M0 50L43 50L43 30L86 30L86 39L129 39L129 66L171 66L171 46L214 46L214 19L257 19L257 108L300 108L300 70L343 70L343 90L386 90L386 108L429 108L429 60L471 60L471 30L514 30L514 69L557 69L557 86L600 86L600 31L643 31L643 102L686 102L686 122L729 122L729 82L771 82L771 51L814 51L814 115L857 115L857 56L900 56L900 122L900 0L900 0L857 0L857 0L814 0L814 0L771 0L771 0L729 0L729 0L686 0L686 0L643 0L643 0L600 0L600 0L557 0L557 0L514 0L514 0L471 0L471 0L429 0L429 0L386 0L386 0L343 0L343 0L300 0L300 0L257 0L257 0L214 0L214 0L171 0L171 0L129 0L129 0L86 0L86 0L43 0L43 0L0 0Z" fill="#560090"></path></svg>