<svg id="visual" viewBox="0 0 900 600" width="900" height="600" xmlns="http://www.w3.org/2000/svg" xmlns:xlink="http://www.w3.org/1999/xlink" version="1.1"><rect x="0" y="0" width="900" height="600" fill="#23655f"></rect><path d="M0 421L129 415L257 431L386 355L514 365L643 424L771 397L900 417L900 601L771 601L643 601L514 601L386 601L257 601L129 601L0 601Z" fill="#c68ddb"></path><path d="M0 413L129 449L257 412L386 407L514 439L643 425L771 461L900 441L900 601L771 601L643 601L514 601L386 601L257 601L129 601L0 601Z" fill="#778dd5"></path><path d="M0 452L129 447L257 466L386 508L514 491L643 444L771 472L900 491L900 601L771 601L643 601L514 601L386 601L257 601L129 601L0 601Z" fill="#2686b6"></path><path d="M0 518L129 497L257 520L386 507L514 502L643 534L771 484L900 491L900 601L771 601L643 601L514 601L386 601L257 601L129 601L0 601Z" fill="#00788a"></path><path d="M0 562L129 560L257 530L386 527L514 539L643 551L771 524L900 572L900 601L771 601L643 601L514 601L386 601L257 601L129 601L0 601Z" fill="#23655f"></path></svg>