<svg id="visual" viewBox="0 0 1920 1080" width="1920" height="1080" xmlns="http://www.w3.org/2000/svg" xmlns:xlink="http://www.w3.org/1999/xlink" version="1.1"><rect x="0" y="0" width="1920" height="1080" fill="#001220"></rect><path d="M0 782L20 765C40 748 80 714 120 710.5C160 707 200 734 240 748.8C280 763.7 320 766.3 360 768C400 769.7 440 770.3 480 763.3C520 756.3 560 741.7 600 731C640 720.3 680 713.7 720 705.2C760 696.7 800 686.3 840 693.8C880 701.3 920 726.7 960 734C1000 741.3 1040 730.7 1080 734.3C1120 738 1160 756 1200 749.8C1240 743.7 1280 713.3 1320 704.5C1360 695.7 1400 708.3 1440 718.7C1480 729 1520 737 1560 741.8C1600 746.7 1640 748.3 1680 742.2C1720 736 1760 722 1800 721C1840 720 1880 732 1900 738L1920 744L1920 1081L1900 1081C1880 1081 1840 1081 1800 1081C1760 1081 1720 1081 1680 1081C1640 1081 1600 1081 1560 1081C1520 1081 1480 1081 1440 1081C1400 1081 1360 1081 1320 1081C1280 1081 1240 1081 1200 1081C1160 1081 1120 1081 1080 1081C1040 1081 1000 1081 960 1081C920 1081 880 1081 840 1081C800 1081 760 1081 720 1081C680 1081 640 1081 600 1081C560 1081 520 1081 480 1081C440 1081 400 1081 360 1081C320 1081 280 1081 240 1081C200 1081 160 1081 120 1081C80 1081 40 1081 20 1081L0 1081Z" fill="#fa7268"></path><path d="M0 840L20 834.7C40 829.3 80 818.7 120 820.3C160 822 200 836 240 844.2C280 852.3 320 854.7 360 855.7C400 856.7 440 856.3 480 856.3C520 856.3 560 856.7 600 848.5C640 840.3 680 823.7 720 822.8C760 822 800 837 840 843C880 849 920 846 960 845.2C1000 844.3 1040 845.7 1080 839.3C1120 833 1160 819 1200 805.8C1240 792.7 1280 780.3 1320 779.7C1360 779 1400 790 1440 794.3C1480 798.7 1520 796.3 1560 803C1600 809.7 1640 825.3 1680 827.7C1720 830 1760 819 1800 808.2C1840 797.3 1880 786.7 1900 781.3L1920 776L1920 1081L1900 1081C1880 1081 1840 1081 1800 1081C1760 1081 1720 1081 1680 1081C1640 1081 1600 1081 1560 1081C1520 1081 1480 1081 1440 1081C1400 1081 1360 1081 1320 1081C1280 1081 1240 1081 1200 1081C1160 1081 1120 1081 1080 1081C1040 1081 1000 1081 960 1081C920 1081 880 1081 840 1081C800 1081 760 1081 720 1081C680 1081 640 1081 600 1081C560 1081 520 1081 480 1081C440 1081 400 1081 360 1081C320 1081 280 1081 240 1081C200 1081 160 1081 120 1081C80 1081 40 1081 20 1081L0 1081Z" fill="#dc3771"></path><path d="M0 858L20 864.3C40 870.7 80 883.3 120 890C160 896.7 200 897.3 240 897.3C280 897.3 320 896.7 360 896.8C400 897 440 898 480 897.7C520 897.3 560 895.7 600 899.3C640 903 680 912 720 916.8C760 921.7 800 922.3 840 914.3C880 906.3 920 889.7 960 886.5C1000 883.3 1040 893.7 1080 893.3C1120 893 1160 882 1200 885.3C1240 888.7 1280 906.3 1320 905C1360 903.7 1400 883.3 1440 882.3C1480 881.3 1520 899.7 1560 903.2C1600 906.7 1640 895.3 1680 884.5C1720 873.7 1760 863.3 1800 868C1840 872.7 1880 892.3 1900 902.2L1920 912L1920 1081L1900 1081C1880 1081 1840 1081 1800 1081C1760 1081 1720 1081 1680 1081C1640 1081 1600 1081 1560 1081C1520 1081 1480 1081 1440 1081C1400 1081 1360 1081 1320 1081C1280 1081 1240 1081 1200 1081C1160 1081 1120 1081 1080 1081C1040 1081 1000 1081 960 1081C920 1081 880 1081 840 1081C800 1081 760 1081 720 1081C680 1081 640 1081 600 1081C560 1081 520 1081 480 1081C440 1081 400 1081 360 1081C320 1081 280 1081 240 1081C200 1081 160 1081 120 1081C80 1081 40 1081 20 1081L0 1081Z" fill="#a90081"></path><path d="M0 961L20 957.3C40 953.7 80 946.3 120 945.3C160 944.3 200 949.7 240 959.5C280 969.3 320 983.7 360 985.3C400 987 440 976 480 972C520 968 560 971 600 969.3C640 967.7 680 961.3 720 964C760 966.7 800 978.3 840 980.8C880 983.3 920 976.7 960 970.5C1000 964.3 1040 958.7 1080 963.3C1120 968 1160 983 1200 985.3C1240 987.7 1280 977.3 1320 975C1360 972.7 1400 978.3 1440 979.2C1480 980 1520 976 1560 976.3C1600 976.7 1640 981.3 1680 984.3C1720 987.3 1760 988.7 1800 988.8C1840 989 1880 988 1900 987.5L1920 987L1920 1081L1900 1081C1880 1081 1840 1081 1800 1081C1760 1081 1720 1081 1680 1081C1640 1081 1600 1081 1560 1081C1520 1081 1480 1081 1440 1081C1400 1081 1360 1081 1320 1081C1280 1081 1240 1081 1200 1081C1160 1081 1120 1081 1080 1081C1040 1081 1000 1081 960 1081C920 1081 880 1081 840 1081C800 1081 760 1081 720 1081C680 1081 640 1081 600 1081C560 1081 520 1081 480 1081C440 1081 400 1081 360 1081C320 1081 280 1081 240 1081C200 1081 160 1081 120 1081C80 1081 40 1081 20 1081L0 1081Z" fill="#560090"></path></svg>