<svg id="visual" viewBox="0 0 900 600" width="900" height="600" xmlns="http://www.w3.org/2000/svg" xmlns:xlink="http://www.w3.org/1999/xlink" version="1.1"><rect x="0" y="0" width="900" height="600" fill="#ffb55b"></rect><path d="M0 348L113 256L225 322L338 318L450 253L563 279L675 316L788 266L900 369L900 601L788 601L675 601L563 601L450 601L338 601L225 601L113 601L0 601Z" fill="#ffffff"></path><path d="M0 292L113 407L225 418L338 403L450 358L563 352L675 358L788 382L900 411L900 601L788 601L675 601L563 601L450 601L338 601L225 601L113 601L0 601Z" fill="#e9eff0"></path><path d="M0 345L113 443L225 407L338 429L450 333L563 400L675 430L788 410L900 419L900 601L788 601L675 601L563 601L450 601L338 601L225 601L113 601L0 601Z" fill="#d3dfe0"></path><path d="M0 393L113 370L225 416L338 470L450 448L563 445L675 440L788 464L900 460L900 601L788 601L675 601L563 601L450 601L338 601L225 601L113 601L0 601Z" fill="#bdcfd1"></path><path d="M0 445L113 474L225 485L338 479L450 494L563 460L675 417L788 480L900 426L900 601L788 601L675 601L563 601L450 601L338 601L225 601L113 601L0 601Z" fill="#a7bfc3"></path><path d="M0 496L113 506L225 499L338 460L450 477L563 518L675 514L788 452L900 516L900 601L788 601L675 601L563 601L450 601L338 601L225 601L113 601L0 601Z" fill="#92b0b4"></path><path d="M0 535L113 539L225 516L338 515L450 524L563 501L675 512L788 521L900 514L900 601L788 601L675 601L563 601L450 601L338 601L225 601L113 601L0 601Z" fill="#7ca0a5"></path><path d="M0 537L113 570L225 567L338 560L450 555L563 570L675 547L788 568L900 550L900 601L788 601L675 601L563 601L450 601L338 601L225 601L113 601L0 601Z" fill="#679197"></path></svg>