<svg id="visual" viewBox="0 0 900 600" width="900" height="600" xmlns="http://www.w3.org/2000/svg" xmlns:xlink="http://www.w3.org/1999/xlink" version="1.1"><rect x="0" y="0" width="900" height="600" fill="#000000"></rect><path d="M0 331L100 365L200 354L300 310L400 319L500 291L600 269L700 310L800 254L900 287L900 601L800 601L700 601L600 601L500 601L400 601L300 601L200 601L100 601L0 601Z" fill="#ffaa00"></path><path d="M0 351L100 360L200 306L300 318L400 349L500 386L600 406L700 348L800 399L900 341L900 601L800 601L700 601L600 601L500 601L400 601L300 601L200 601L100 601L0 601Z" fill="#eb9913"></path><path d="M0 384L100 411L200 352L300 374L400 401L500 399L600 370L700 376L800 401L900 453L900 601L800 601L700 601L600 601L500 601L400 601L300 601L200 601L100 601L0 601Z" fill="#d7891b"></path><path d="M0 457L100 413L200 469L300 434L400 412L500 407L600 430L700 416L800 476L900 431L900 601L800 601L700 601L600 601L500 601L400 601L300 601L200 601L100 601L0 601Z" fill="#c37920"></path><path d="M0 480L100 457L200 466L300 496L400 484L500 499L600 510L700 520L800 468L900 485L900 601L800 601L700 601L600 601L500 601L400 601L300 601L200 601L100 601L0 601Z" fill="#ad6a22"></path><path d="M0 549L100 531L200 520L300 559L400 517L500 531L600 516L700 524L800 538L900 531L900 601L800 601L700 601L600 601L500 601L400 601L300 601L200 601L100 601L0 601Z" fill="#985c23"></path></svg>